<?xml version="1.0" ?><svg data-name="Layer 1" id="Layer_1" viewBox="0 0 48 48" xmlns="http://www.w3.org/2000/svg"><defs><style>.cls-1,.cls-2{fill:none;stroke:#303030;stroke-linecap:round;stroke-linejoin:round;}.cls-1{stroke-width:1.89px;}.cls-2{stroke-width:2px;}</style></defs><title/><path class="cls-1" d="M47,27V21H41.51a18.09,18.09,0,0,0-2.76-6.68l3.88-3.87L37.55,5.37,33.68,9.25A18.09,18.09,0,0,0,27,6.49V1H21V6.49a18.09,18.09,0,0,0-6.68,2.76L10.45,5.37,5.37,10.45l3.88,3.87A18.09,18.09,0,0,0,6.49,21H1v6H6.49a18.09,18.09,0,0,0,2.76,6.68L5.37,37.55l5.08,5.08,3.87-3.88A18.09,18.09,0,0,0,21,41.51V47h6V41.51a18.09,18.09,0,0,0,6.68-2.76l3.87,3.88,5.08-5.08-3.88-3.87A18.09,18.09,0,0,0,41.51,27Z"/><circle class="cls-2" cx="24" cy="24" r="9"/></svg>
