<?xml version="1.0" ?>
<svg enable-background="new 0 0 24 24" id="Layer_1" version="1.1" width="20px" heigth="20px" viewBox="0 0 24 24" xml:space="preserve" xmlns="http://www.w3.org/2000/svg" xmlns:xlink="http://www.w3.org/1999/xlink">
  <g>
    <path d="M19.5,1h-6C13.2236328,1,13,1.2236328,13,1.5v21c0,0.2763672,0.2236328,0.5,0.5,0.5h6   c1.9296875,0,3.5-1.5703125,3.5-3.5v-15C23,2.5703125,21.4296875,1,19.5,1z" fill="#323232"/>
    <path d="M10.5,1h-6C2.5703125,1,1,2.5703125,1,4.5v15C1,21.4296875,2.5703125,23,4.5,23h6   c0.2763672,0,0.5-0.2236328,0.5-0.5v-21C11,1.2236328,10.7763672,1,10.5,1z" fill="#323232"/>
    <path d="M10,22H4.5C3.1210938,22,2,20.878418,2,19.5v-15C2,3.121582,3.1210938,2,4.5,2H10V22z" fill="#FFFFFF"/>
    <circle cx="6" cy="7.5" fill="#323232" r="2.5"/>
    <circle cx="18" cy="13.5" fill="#FFFFFF" r="2.5"/>
    <linearGradient gradientUnits="userSpaceOnUse" id="SVGID_1_" x1="-0.2049642" x2="24.2049637" y1="6.3087316" y2="17.6912689">
      <stop offset="0" style="stop-color:#FFFFFF;stop-opacity:0.2"/>
      <stop offset="1" style="stop-color:#FFFFFF;stop-opacity:0"/>
    </linearGradient>
    <path d="M19.5,1h-6C13.2236328,1,13,1.2236328,13,1.5v21c0,0.2763672,0.2236328,0.5,0.5,0.5h6   c1.9296875,0,3.5-1.5703125,3.5-3.5v-15C23,2.5703125,21.4296875,1,19.5,1z M10.5,1h-6C2.5703125,1,1,2.5703125,1,4.5v15   C1,21.4296875,2.5703125,23,4.5,23h6c0.2763672,0,0.5-0.2236328,0.5-0.5v-21C11,1.2236328,10.7763672,1,10.5,1z" fill="url(#SVGID_1_)"/>
                            </g>
                          <g/>
                        <g/>
                      <g/>
                    <g/>
                  <g/>
                 <g/>
               <g/>
             <g/>
            <g/>
          <g/>
        <g/>
       <g/>
      <g/>
    <g/>
  <g/>
</svg>
