<?xml version="1.0" encoding="utf-8"?>
<!-- Generator: Adobe Illustrator 19.0.0, SVG Export Plug-In . SVG Version: 6.00 Build 0)  -->
<svg version="1.1" id="Camada_1" xmlns="http://www.w3.org/2000/svg" xmlns:xlink="http://www.w3.org/1999/xlink" x="0px" y="0px"
	 width="50px" height="40px" viewBox="25 30 50 40" style="enable-background:new 25 30 50 40;" xml:space="preserve">
<g>
	<g>
		<g>
			<path fill="#FFFFFF" d="M72.7,35.3H62.5v-4.7v-0.2H25v0.2v31.3v1.6h0.1c0.8,7,7.5,6.2,15.5,6.2h6.2c8.1,0,14.7,0.7,15.5-6.2h0.1v-1.6v-9.6h10.2
				c1.3,0,2.3-1,2.3-2.3V37.5C75,36.3,74,35.3,72.7,35.3z M71.9,47.4c0,0.9-0.9,1.7-2,1.7h-7.4V38.4h7.4c1.1,0,2,0.8,2,1.7V47.4z"/>
		</g>
		<g>
		</g>
		<g>
		</g>
	</g>
</g>
</svg>
