<?xml version="1.0" ?><!DOCTYPE svg  PUBLIC '-//W3C//DTD SVG 1.1//EN'  'http://www.w3.org/Graphics/SVG/1.1/DTD/svg11.dtd'>
<svg enable-background="new -0.3 -0.6 19 27" height="20px" version="1.1" viewBox="-0.3 -0.6 19 27" width="14px" xml:space="preserve" xmlns="http://www.w3.org/2000/svg" xmlns:xlink="http://www.w3.org/1999/xlink"><defs/><path clip-rule="evenodd" d="M11,6.6v2.6c0,1-0.9,1.8-2,1.8c-1.1,0-2-0.8-2-1.8V6.6  c0-1,0.9-1.8,2-1.8C10.1,4.9,11,5.7,11,6.6z M9,25.9c-5,0-9-4-9-9v-8C0,4.3,3.5,0.5,8,0v3.2C6.8,3.6,6,4.8,6,6.1v3.7  c0,1.7,1.3,3,3,3s3-1.4,3-3V6.1c0-1.3-0.8-2.4-2-2.9V0c4.5,0.5,8,4.3,8,8.9v8C18,21.9,14,25.9,9,25.9z" fill="#0D0D0D" fill-rule="evenodd"/></svg>
