<?xml version="1.0" encoding="utf-8"?>
<!-- Generator: Adobe Illustrator 19.0.0, SVG Export Plug-In . SVG Version: 6.00 Build 0)  -->
<svg version="1.1" id="Layer_1" xmlns="http://www.w3.org/2000/svg" xmlns:xlink="http://www.w3.org/1999/xlink" x="0px" y="0px"
	 width="32px" height="32px" viewBox="-395 27 32 32" style="enable-background:new -395 27 32 32;" xml:space="preserve">
<style type="text/css">
	.st0{fill:#FFFFFF;}
</style>
<g id="calendar_1_">
	<path class="st0" d="M-365.7,30h-4.3v-2c0-0.6-0.4-1-1-1s-1,0.4-1,1v2h-6v-2c0-0.6-0.4-1-1-1s-1,0.4-1,1v2h-6v-2c0-0.6-0.4-1-1-1
		s-1,0.4-1,1v2h-4.3c-1.5,0-2.7,1.2-2.7,2.7v23.7c0,1.5,1.2,2.7,2.7,2.7h26.7c1.5,0,2.7-1.2,2.7-2.7V32.7
		C-363,31.2-364.2,30-365.7,30z M-365,56.4c0,0.4-0.3,0.7-0.7,0.7h-26.7c-0.4,0-0.7-0.3-0.7-0.7V32.7c0-0.4,0.3-0.7,0.7-0.7h4.3v2
		c0,0.6,0.4,1,1,1s1-0.4,1-1v-2h6v2c0,0.6,0.4,1,1,1s1-0.4,1-1v-2h6v2c0,0.6,0.4,1,1,1s1-0.4,1-1v-2h4.3c0.4,0,0.7,0.3,0.7,0.7V56.4
		z"/>
	<rect x="-388" y="39" class="st0" width="4" height="3"/>
	<rect x="-388" y="44" class="st0" width="4" height="3"/>
	<rect x="-388" y="49" class="st0" width="4" height="3"/>
	<rect x="-381" y="49" class="st0" width="4" height="3"/>
	<rect x="-381" y="44" class="st0" width="4" height="3"/>
	<rect x="-381" y="39" class="st0" width="4" height="3"/>
	<rect x="-374" y="49" class="st0" width="4" height="3"/>
	<rect x="-374" y="44" class="st0" width="4" height="3"/>
	<rect x="-374" y="39" class="st0" width="4" height="3"/>
</g>
</svg>
