<?xml version="1.0" encoding="utf-8"?>
<!-- Generator: Adobe Illustrator 19.0.0, SVG Export Plug-In . SVG Version: 6.00 Build 0)  -->
<svg version="1.1" id="Camada_1" xmlns="http://www.w3.org/2000/svg" xmlns:xlink="http://www.w3.org/1999/xlink" x="0px" y="0px"
	 width="50px" height="40px" viewBox="25 30 50 40" style="enable-background:new 25 30 50 40;" xml:space="preserve">
<style type="text/css">
	.st0{fill:#FFFFFF;}
</style>
<g>
	<path class="st0" d="M58.2,70c0,0,3.6,0,3.6-3.6V33.6c0-3.6-3.6-3.6-3.6-3.6H41.8c0,0-3.6,0-3.6,3.6v32.7c0,3.6,3.6,3.6,3.6,3.6
		H58.2z M50,68.5c-1,0-1.8-0.8-1.8-1.8c0-1,0.8-1.8,1.8-1.8s1.8,0.8,1.8,1.8S51,68.5,50,68.5z M45.5,32.2c0-0.2,0.2-0.4,0.4-0.4h8.3
		c0.2,0,0.4,0.2,0.4,0.4v0.1c0,0.2-0.2,0.4-0.4,0.4h-8.3c-0.2,0-0.4-0.2-0.4-0.4V32.2z M40,34.5h20v29H40V34.5z"/>
</g>
</svg>
