<?xml version="1.0" ?><!DOCTYPE svg  PUBLIC '-//W3C//DTD SVG 1.1//EN'  'http://www.w3.org/Graphics/SVG/1.1/DTD/svg11.dtd'><svg enable-background="new 0 0 91 91" height="91px" id="Layer_1" version="1.1" viewBox="0 0 91 91" width="91px" xml:space="preserve" xmlns="http://www.w3.org/2000/svg" xmlns:xlink="http://www.w3.org/1999/xlink"><g><path d="M19.229,65.917c0.146,1.68,0.928,3.307,2.178,4.555l0.121,0.123c1.41,1.408,3.279,2.217,5.133,2.217   c1.568,0,3.012-0.578,4.063-1.631l18.23-18.227c0.105-0.109,0.209-0.221,0.307-0.336c2.09,0.908,4.297,1.385,6.461,1.385   c3.547,0,6.795-1.293,9.143-3.639l3.881-3.885c3.814-3.811,4.717-9.699,2.355-15.367l-0.977-2.342l-7.637,7.637   c-0.748,0.748-1.689,0.904-2.348,0.904c-1.295,0-2.633-0.594-3.676-1.639l-0.127-0.125c-0.939-0.938-1.514-2.111-1.615-3.303   c-0.094-1.084,0.223-2.047,0.889-2.715l7.637-7.635l-2.342-0.977c-5.506-2.297-11.639-1.375-15.367,2.352l-3.885,3.885   c-3.869,3.871-4.701,9.979-2.254,15.602c-0.115,0.096-0.227,0.199-0.334,0.305l-18.23,18.23   C19.646,62.483,19.075,64.124,19.229,65.917z M23.239,63.696l18.23-18.23c0.193-0.193,0.436-0.342,0.74-0.455l1.846-0.688   l-0.949-1.725c-2.563-4.664-2.182-9.906,0.949-13.041l3.887-3.885c1.727-1.725,4.057-2.637,6.734-2.637   c0.779,0,1.58,0.082,2.379,0.242l-3.848,3.848c-1.391,1.391-2.057,3.311-1.873,5.41c0.17,1.99,1.094,3.914,2.604,5.424l0.129,0.125   c1.668,1.67,3.881,2.627,6.072,2.627c1.838,0,3.525-0.674,4.752-1.902l3.855-3.854c0.713,3.5-0.131,6.846-2.408,9.119l-3.879,3.887   c-1.73,1.727-4.061,2.641-6.738,2.641c-2.111,0-4.289-0.584-6.301-1.689l-1.719-0.945l-0.691,1.834   c-0.115,0.309-0.266,0.551-0.459,0.744l-18.232,18.23c-0.523,0.523-1.191,0.635-1.658,0.635c-0.959,0-1.953-0.443-2.711-1.201   l-0.121-0.125c-0.703-0.703-1.135-1.578-1.211-2.461C22.55,64.849,22.772,64.165,23.239,63.696z" fill="#666" /></g></svg>
