<?xml version="1.0" encoding="utf-8"?>
<!-- Generator: Adobe Illustrator 19.0.0, SVG Export Plug-In . SVG Version: 6.00 Build 0)  -->
<svg version="1.1" id="Camada_1" xmlns="http://www.w3.org/2000/svg" xmlns:xlink="http://www.w3.org/1999/xlink" x="0px" y="0px"
	 width="100px" height="100px" viewBox="0 0 100 100" enable-background="new 0 0 100 100" xml:space="preserve">
<path id="XMLID_1_" fill="none" stroke="#FFFFFF" stroke-width="3" stroke-miterlimit="10" d="M76.2,68c-0.7-2.2-2-4.3-3.9-5.6
	c-3.7-2.5-8-3.8-12.2-5.2c-1-0.4-2-0.7-2.9-1.3c-0.8-0.5-1.1-1.5-1.3-2.4c-0.1-0.5-0.1-0.9-0.2-1.4c3-4.1,5-10.9,5-16.4
	c0-8.6-4.9-11-10.9-11c-6,0-10.9,2.4-10.9,11c0,5.7,2.1,12.8,5.4,16.8c0,0.3-0.1,0.6-0.1,1c-0.2,0.9-0.5,1.9-1.3,2.3
	c-0.9,0.5-1.9,0.9-2.9,1.2c-4.2,1.4-8.5,2.6-12.2,5.1c-1.9,1.3-3.2,3.6-3.9,5.7c-0.7,2.2-1,5-1,7.3H50h27.2C77.3,73,77,70.2,76.2,68
	z"/>
<path id="XMLID_7_" fill="#FFFFFF" d="M50,0C22.4,0,0,22.4,0,50c0,27.6,22.4,50,50,50s50-22.4,50-50C100,22.4,77.6,0,50,0z M50,97.5
	C23.8,97.5,2.5,76.2,2.5,50S23.8,2.5,50,2.5S97.5,23.8,97.5,50S76.2,97.5,50,97.5z"/>
</svg>
