<?xml version="1.0" encoding="utf-8"?>
<!-- Generator: Adobe Illustrator 19.0.0, SVG Export Plug-In . SVG Version: 6.00 Build 0)  -->
<svg version="1.1" id="Capa_1" xmlns="http://www.w3.org/2000/svg" xmlns:xlink="http://www.w3.org/1999/xlink" x="0px" y="0px"
	 width="446.9px" height="420.6px" viewBox="-82 186.3 446.9 420.6" enable-background="new -82 186.3 446.9 420.6"
	 xml:space="preserve">
<g>
	<path fill="#FFFFFF" d="M362.3,266.5c-2.6-3.7-6.7-5.9-11.1-6.1L73.9,248.4c-8-0.3-14.6,5.8-14.9,13.7c-0.3,7.9,5.8,14.6,13.7,14.9
		l258.4,11.1l-50.8,158.5H54.2L13.4,224.3c-0.9-4.9-4.2-8.9-8.9-10.8l-66.9-26.3c-7.4-2.9-15.7,0.7-18.6,8.1
		c-2.9,7.4,0.7,15.7,8.1,18.6l59.5,23.4l41.6,226.3c1.3,6.8,7.2,11.7,14.1,11.7h6.9l-15.7,43.7c-1.3,3.7-0.8,7.7,1.5,10.9
		c2.2,3.2,5.9,5.1,9.8,5.1h11c-6.8,7.6-11,17.6-11,28.7c0,23.7,19.3,43,43,43s43-19.3,43-43c0-11-4.2-21.1-11-28.7h93.8
		c-6.8,7.6-11,17.6-11,28.7c0,23.7,19.3,43,43,43c23.7,0,43-19.3,43-43c0-11-4.2-21.1-11-28.7h13.4c6.6,0,11.9-5.3,11.9-11.9
		c0-6.6-5.3-11.9-11.9-11.9H61.7l12.9-35.8h216.2c6.2,0,11.8-4,13.7-10l59.7-186.4C365.5,274.8,364.8,270.2,362.3,266.5z M87.7,583
		c-10.5,0-19.1-8.6-19.1-19.1c0-10.5,8.6-19.1,19.1-19.1s19.1,8.6,19.1,19.1C106.8,574.4,98.2,583,87.7,583z M245.4,583
		c-10.5,0-19.1-8.6-19.1-19.1c0-10.5,8.6-19.1,19.1-19.1s19.1,8.6,19.1,19.1C264.5,574.4,255.9,583,245.4,583z"/>
</g>
</svg>
