<?xml version="1.0" encoding="utf-8"?>
<!-- Generator: Adobe Illustrator 19.0.0, SVG Export Plug-In . SVG Version: 6.00 Build 0)  -->
<svg version="1.1" id="Camada_1" xmlns="http://www.w3.org/2000/svg" xmlns:xlink="http://www.w3.org/1999/xlink" x="0px" y="0px"
	 width="50px" height="40px" viewBox="25 30 50 40" style="enable-background:new 25 30 50 40;" xml:space="preserve">
<style type="text/css">
	.st0{fill:#FFFFFF;}
</style>
<g>
	<g>
		<g>
			<path class="st0" d="M64.5,47.9H58v-3v-0.1H33.9v0.1V65v1H34c0.5,4.5,4.8,4,10,4h4c5.2,0,9.4,0.5,10-4H58v-1v-6.2h6.5
				c0.8,0,1.5-0.7,1.5-1.5v-8C66.1,48.6,65.4,47.9,64.5,47.9z M64,55.7c0,0.6-0.6,1.1-1.3,1.1H58v-6.9h4.8c0.7,0,1.3,0.5,1.3,1.1
				V55.7z"/>
		</g>
		<g>
			<path class="st0" d="M42.9,42.8L42.2,42c0.7-0.5,2.3-2.2,1.8-3.4c-0.2-0.5-0.5-0.9-0.9-1.2c-0.4-0.5-0.9-1-1.1-1.8
				c-0.6-2.2,1.8-5.1,2.1-5.5l0.8,0.6c-0.7,0.8-2.3,3.2-1.9,4.6c0.2,0.6,0.5,1,0.9,1.4c0.4,0.4,0.8,0.9,1.1,1.6
				C45.9,40.3,43,42.7,42.9,42.8z"/>
		</g>
		<g>
			<path class="st0" d="M47.9,41.7L47.2,41c0.4-0.3,1.5-1.4,1.2-2.1c-0.1-0.3-0.3-0.5-0.5-0.8c-0.3-0.3-0.6-0.7-0.8-1.3
				c-0.4-1.5,1.2-3.6,1.4-3.8l0.8,0.6c-0.6,0.7-1.5,2.1-1.2,2.9c0.1,0.4,0.3,0.6,0.6,0.9c0.3,0.3,0.6,0.6,0.8,1.1
				C49.9,40,48.1,41.6,47.9,41.7z"/>
		</g>
	</g>
</g>
</svg>
