<svg style="enable-background:new 0 0 48 48;" version="1.1" viewBox="0 0 48 48" xml:space="preserve" xmlns="http://www.w3.org/2000/svg" xmlns:xlink="http://www.w3.org/1999/xlink">
  <style type="text/css">
    .st0{display:none;}
	  .st1{fill:none;stroke:#303030;stroke-width:0.7;stroke-linecap:round;stroke-linejoin:round;stroke-miterlimit:10;}
	  .st2{fill:#151515;}
  </style>
<g class="st0" id="Padding__x26__Artboard"/>
  <g id="Icons">
    <g>
      <path class="st1" d="M35.24081,27.28716l-0.00455,6.35106c0,1.51155-1.14731,2.74078-2.54954,2.74078H15.31331    c-1.41135,0-2.55866-1.22923-2.55866-2.74078l0.00455-6.34194c0.44616,0.06369,0.91055,0.08192,1.36583,0.05463l-0.00455,6.28731    c0,0.75578,0.53725,1.37495,1.19282,1.37495h17.37341c0.65557,0,1.18371-0.61917,1.18371-1.37495l0.00454-6.29643    C34.33026,27.37819,34.79465,27.35996,35.24081,27.28716z"/>
    <g>
      <path class="st1" d="M10.27793,24.09561c0,1.11998,1.12909,1.78469,2.47671,1.99412     c0.44617,0.07284,0.91056,0.09105,1.36583,0.05463c1.56616-0.10016,3.01394-0.78308,3.01394-2.04875"/><path class="st1" d="M17.13774,24.09488c0,2.75728,6.86018,2.75728,6.86018,0"/><path class="st1" d="M23.99791,24.09488c0,2.75728,6.86018,2.75728,6.86018,0"/><path class="st1" d="M37.72207,24.09561c0,1.11998-1.1382,1.78469-2.48582,1.99412     c-0.44617,0.06374-0.91056,0.08195-1.36583,0.05463c-1.56615-0.10016-3.00483-0.78308-3.00483-2.04875"/><path class="st1" d="M10.27793,24.09561l3.14709-11.43638c0.16876-0.61327,0.72645-1.03823,1.36252-1.03823h18.42491     c0.63607,0,1.19376,0.42495,1.36252,1.03823l3.14709,11.43638"/></g><g><path class="st1" d="M12.75919,27.29625c0.44617,0.06374,0.91056,0.08195,1.36583,0.05463"/><path class="st1" d="M33.87497,27.34178c0.45528,0.03642,0.91966,0.01821,1.36583-0.05463"/></g><line class="st1" x1="16.37364" x2="24.56307" y1="13.86694" y2="13.86694"/><line class="st1" x1="27.77735" x2="30.0816" y1="13.86694" y2="13.86694"/>
    </g>
  </g>
</svg>
