<?xml version="1.0" encoding="utf-8"?>
<!-- Generator: Adobe Illustrator 19.0.0, SVG Export Plug-In . SVG Version: 6.00 Build 0)  -->
<svg version="1.1" id="Layer_1" xmlns="http://www.w3.org/2000/svg" xmlns:xlink="http://www.w3.org/1999/xlink" x="0px" y="0px"
	 width="512px" height="419.9px" viewBox="-49 187.1 512 419.9" enable-background="new -49 187.1 512 419.9" xml:space="preserve">
<g id="meanicons_x5F_54">
	<path fill="#FFFFFF" d="M443.3,285.2c-3-8.6-11.7-5.6-13.6,5.4c-6.8,38.7-19.8,114.1-26.7,150.5c-0.6,3.6-7,10.1-10.7,10
		c-60.2-2-261.7-4.7-261.7-4.7L63.9,253.8l-3.8-13c-0.7-1.8-1.3-3.4-1.7-4.4C54,224.9,46.6,217.4,40.3,213c-6.2-4.5-11.4-6-12.1-6.3
		l-0.2-0.1l-54-13l-3.8,18.9l50.7,12.7c0.8,0.3,3.8,1.5,7.1,4c3.7,2.9,7.9,7.2,10.6,14.1c3.5,9.2,22.3,61.2,40.1,110.6
		c8.9,24.7,17.6,48.9,24.1,66.8c5.7,15.9,9.7,26.9,10.5,29.3c0.1,0.8,0.6,3.2,0.6,5.9c0,2.9-0.5,6.2-1.8,8.7c-1.3,2.6-3,4.6-7.2,6.5
		c-12.9,5.6-20.4,18.2-20.5,31.2c-0.1,8.2,3.3,16.9,10.5,23c7.2,6.1,17.3,9.4,29.8,9.4c3.3,0,8.1,0,13.8,0l17,0
		c-14.4,4.6-24.8,17.8-24.8,33.7c0,19.6,15.9,35.5,35.5,35.5c19.6,0,35.5-15.9,35.5-35.5c0-15.9-10.4-29.1-24.8-33.7l16.9,0
		c23.8,0,50.8,0.1,76.9,0.2c18.2,0,36,0,52,0.1l15.7,0c-13.8,4.9-23.7,17.9-23.7,33.3c0,19.6,15.9,35.5,35.5,35.5
		c19.6,0,35.5-15.9,35.5-35.5c0-15.4-9.8-28.4-23.5-33.3l15.6,0c6,0,9.4,0,9.4,0c0,0,0,0,0,0c1.2,0,1.9,0,1.9,0
		c5.4,0,9.7-4.3,9.7-9.6c0-5.3-4.3-9.7-9.6-9.7c0,0-223.4-0.5-262.7-0.5c-9.3,0-14.5-2.4-17.2-4.7c-2.7-2.4-3.7-5.1-3.8-8.4
		c-0.1-5.3,3.6-11.4,8.8-13.5c8.3-3.5,13.9-9.5,16.9-15.7c1.4-3,2.3-5.9,2.9-8.7c1.8,0.4,3.6,0.7,5.5,0.7l253,5.2c0.2,0,0.3,0,0.5,0
		c0.1,0,0.2,0,0.3,0h1.2c0.3,0,0.4,0,0.5,0c5.6,0,10.8-2,14.9-5.3c4-3.3,7.2-8,8.2-13.7l24.6-146.6c0.3-1.8,0.5-3.6,0.5-5.4
		C443.3,295.5,444.7,288.7,443.3,285.2z"/>
</g>
<g id="Layer_1_1_">
</g>
</svg>
