<?xml version="1.0" encoding="utf-8"?>
<!-- Generator: Adobe Illustrator 19.0.0, SVG Export Plug-In . SVG Version: 6.00 Build 0)  -->
<svg version="1.1" id="Camada_1" xmlns="http://www.w3.org/2000/svg" xmlns:xlink="http://www.w3.org/1999/xlink" x="0px" y="0px"
	 width="50px" height="40px" viewBox="25 30 50 40" style="enable-background:new 25 30 50 40;" xml:space="preserve">
<style type="text/css">
	.st0{fill:#FFFFFF;}
</style>
<g>
	<path class="st0" d="M34.3,44.2c-0.5,0.4-0.8,0.7-0.9,0.7c-0.1,0.2-0.3,1.4-0.2,1.8c0,0.2,0.4,0.3,1.1,0.3l0,0.3V47
		c0.7,0,1.1-0.1,1.1-0.3c0-0.4-0.1-1.5-0.2-1.8C35.1,44.8,34.7,44.5,34.3,44.2z"/>
	<path class="st0" d="M32.6,42.4c-0.2-0.1-1.2-0.2-1.7-0.2c0,0-0.1,0-0.1,0c-0.2,0-0.3,0.4-0.3,1.1c0,0.7,0.1,1.1,0.3,1.1
		c0,0,0.1,0,0.1,0c0.5,0,1.5-0.1,1.7-0.2c0.1,0,0.4-0.4,0.7-0.9C33,42.7,32.7,42.4,32.6,42.4z"/>
	<path class="st0" d="M37.7,42.1c-0.4,0-1.6,0.1-1.8,0.2c-0.1,0-0.4,0.4-0.7,0.9c0.3,0.4,0.6,0.8,0.7,0.9c0.2,0.1,1.2,0.2,1.7,0.2
		c0,0,0.1,0,0.1,0c0.2,0,0.3-0.4,0.3-1.1c0,0,0,0,0-0.1C38,42.5,37.9,42.1,37.7,42.1z"/>
	<path class="st0" d="M39.7,39.4c0.2,0,0.4-0.2,0.4-0.4v-1.2c0-0.2-0.2-0.4-0.4-0.4c-0.2,0-0.4,0.2-0.4,0.4v1.2
		C39.3,39.2,39.4,39.4,39.7,39.4z"/>
	<path class="st0" d="M34.3,42.3c0.4-0.3,0.8-0.6,0.9-0.7c0.1-0.2,0.3-1.4,0.2-1.8c0-0.2-0.4-0.3-1.1-0.3c-0.7,0-1.1,0.1-1.1,0.3
		c0,0.4,0.1,1.5,0.2,1.8C33.5,41.6,33.8,42,34.3,42.3z"/>
	<path class="st0" d="M60.2,39.4c0.2,0,0.4-0.2,0.4-0.4v-1.2c0-0.2-0.2-0.4-0.4-0.4c-0.2,0-0.4,0.2-0.4,0.4v1.2
		C59.8,39.2,60,39.4,60.2,39.4z"/>
	<circle class="st0" cx="65.5" cy="46.5" r="1.5"/>
	<circle class="st0" cx="69" cy="43" r="1.5"/>
	<path class="st0" d="M71.9,41.7c-0.6-2.2-2.8-5.4-2.8-5.4c-0.1-0.2-0.3-0.3-0.6-0.4v-0.5c0,0-2.6-1.7-6-0.3c0,0-0.1,0.1-0.2,0.6
		c-0.2,0-0.4,0.1-0.6,0.2C61.1,36,60.7,36,60.7,36h-2.3c0.1,0.2,0.1,0.4,0.1,0.6v7.2c0,0.8-0.6,1.4-1.4,1.4H42.8
		c-0.8,0-1.4-0.6-1.4-1.4v-7.2c0-0.2,0.1-0.4,0.1-0.6h-2.2c0,0-0.4,0.1-1.1-0.2c-0.2-0.1-0.3-0.1-0.6-0.2c0-0.5-0.2-0.6-0.2-0.6
		c-3.4-1.4-6,0.3-6,0.3v0.5c-0.3,0.1-0.5,0.3-0.6,0.4c0,0-2.2,3.2-2.8,5.4c-0.6,2.2-3.6,14.6-3,19.4c0.6,4.8,7.8,6,9.7,2.2
		c1.9-3.7,3.1-8.3,3.1-8.3s0.7-0.5,0.9-0.5c0,0,3.2,2.6,6.6-0.2h9.2c3.4,2.9,6.6,0.2,6.6,0.2c0.2,0,0.9,0.5,0.9,0.5s1.2,4.5,3.1,8.3
		c1.9,3.7,9.1,2.6,9.7-2.2C75.5,56.3,72.5,43.9,71.9,41.7z M38.7,37.8c0-0.5,0.4-1,1-1c0.5,0,1,0.4,1,1v1.2c0,0.5-0.4,1-1,1
		c-0.5,0-1-0.4-1-1V37.8z M32.6,39.7c0.1-0.8,1.2-0.8,1.6-0.8c0.5,0,1.6,0,1.6,0.8c0,0.4-0.1,1.7-0.3,2c-0.2,0.3-0.9,0.8-1.2,1
		c0,0,0,0-0.1,0c0,0-0.1,0-0.1,0c0,0,0,0,0,0c0,0-0.1,0-0.1,0c0,0,0,0-0.1,0c-0.3-0.2-1-0.7-1.2-1C32.7,41.4,32.6,40.1,32.6,39.7z
		 M30.8,44.8C30,44.8,30,43.7,30,43.2c0-0.5,0-1.6,0.8-1.6c0,0,0.1,0,0.1,0c0.5,0,1.6,0.1,1.9,0.3c0.3,0.1,0.8,0.8,1,1.2
		c0,0,0,0,0,0c0,0,0,0.1,0,0.2c0,0,0,0.1,0,0.1c0,0,0,0,0,0.1c-0.3,0.4-0.8,1-1,1.2c-0.3,0.2-1.4,0.3-1.9,0.3
		C30.9,44.8,30.8,44.8,30.8,44.8z M35.9,46.7c-0.1,0.8-1.2,0.8-1.6,0.8h0c-0.5,0-1.6,0-1.6-0.8c0-0.4,0.1-1.7,0.3-2
		c0.1-0.3,0.8-0.8,1.2-1c0,0,0,0,0,0c0,0,0,0,0.1,0c0.1,0,0.1,0,0.2,0c0,0,0,0,0.1,0c0.3,0.2,1,0.7,1.2,1
		C35.8,45,35.9,46.3,35.9,46.7z M37.8,44.8c0,0-0.1,0-0.1,0c-0.5,0-1.6-0.1-1.9-0.3c-0.3-0.2-0.9-1-1-1.2c0,0,0,0,0-0.1c0,0,0,0,0,0
		c0-0.1,0-0.1,0-0.2c0,0,0,0,0-0.1c0.3-0.4,0.8-1,1-1.2c0.3-0.2,1.4-0.3,1.9-0.3c0.1,0,0.1,0,0.1,0c0.8,0.1,0.8,1.2,0.8,1.6
		c0,0,0,0,0,0C38.6,43.7,38.6,44.8,37.8,44.8z M41.6,53.1c-1.6,0-2.9-1.3-2.9-2.9c0-1.6,1.3-2.9,2.9-2.9c1.6,0,2.9,1.3,2.9,2.9
		C44.5,51.8,43.2,53.1,41.6,53.1z M65.5,37.5c1.1,0,2,0.9,2,2c0,1.1-0.9,2-2,2c-1.1,0-2-0.9-2-2C63.5,38.4,64.4,37.5,65.5,37.5z
		 M59.2,37.8c0-0.5,0.4-1,1-1c0.5,0,1,0.4,1,1v1.2c0,0.5-0.4,1-1,1c-0.5,0-1-0.4-1-1V37.8z M57.9,53.1c-1.6,0-2.9-1.3-2.9-2.9
		c0-1.6,1.3-2.9,2.9-2.9s2.9,1.3,2.9,2.9C60.8,51.8,59.5,53.1,57.9,53.1z M62.1,45.1c-1.1,0-2-0.9-2-2c0-1.1,0.9-2,2-2
		c1.1,0,2,0.9,2,2C64.1,44.2,63.2,45.1,62.1,45.1z M65.5,48.5c-1.1,0-2-0.9-2-2c0-1.1,0.9-2,2-2c1.1,0,2,0.9,2,2
		C67.6,47.6,66.7,48.5,65.5,48.5z M69,45.1c-1.1,0-2-0.9-2-2c0-1.1,0.9-2,2-2c1.1,0,2,0.9,2,2C71,44.2,70.1,45.1,69,45.1z"/>
	<circle class="st0" cx="65.5" cy="39.6" r="1.5"/>
	<circle class="st0" cx="62.1" cy="43" r="1.5"/>
	<path class="st0" d="M42.8,44.6h14.3c0.5,0,0.9-0.4,0.9-0.9v-7.2c0-0.2-0.1-0.4-0.2-0.6H42.2c-0.1,0.2-0.2,0.4-0.2,0.6v7.2
		C41.9,44.2,42.3,44.6,42.8,44.6z"/>
	<circle class="st0" cx="57.9" cy="50.2" r="2.4"/>
	<circle class="st0" cx="41.6" cy="50.2" r="2.4"/>
</g>
</svg>
