<?xml version="1.0" encoding="utf-8"?>
<!-- Generator: Adobe Illustrator 19.0.0, SVG Export Plug-In . SVG Version: 6.00 Build 0)  -->
<svg version="1.1" id="Camada_1" xmlns="http://www.w3.org/2000/svg" xmlns:xlink="http://www.w3.org/1999/xlink" x="0px" y="0px"
	 width="50px" height="40px" viewBox="25 30 50 40" style="enable-background:new 25 30 50 40;" xml:space="preserve">
<style type="text/css">
	.st0{fill:#FFFFFF;}
</style>
<path class="st0" d="M50.9,47.6c-5-1.3-6.7-2.7-6.7-4.8c0-2.4,2.2-4.1,6-4.1c4,0,5.4,1.9,5.6,4.7h4.9c-0.2-3.8-2.5-7.3-7.1-8.5V30
	h-6.7v4.8c-4.3,0.9-7.8,3.7-7.8,8c0,5.1,4.2,7.7,10.4,9.2c5.6,1.3,6.7,3.3,6.7,5.4c0,1.5-1.1,4-6,4c-4.6,0-6.4-2-6.6-4.7h-4.9
	c0.3,4.9,3.9,7.6,8.2,8.5V70h6.7v-4.8c4.3-0.8,7.8-3.3,7.8-7.9C61.3,51,55.9,48.9,50.9,47.6z"/>
<path class="st0" d="M34.9,53.7c-1.2-0.3-1.6-0.7-1.6-1.2c0-0.6,0.5-1,1.5-1c1,0,1.3,0.5,1.4,1.1h1.2c0-0.9-0.6-1.8-1.7-2.1v-1.2
	h-1.6v1.2c-1.1,0.2-1.9,0.9-1.9,2c0,1.3,1,1.9,2.5,2.2c1.4,0.3,1.6,0.8,1.6,1.3c0,0.4-0.3,1-1.5,1c-1.1,0-1.6-0.5-1.6-1.1h-1.2
	c0.1,1.2,1,1.9,2,2.1v1.2h1.6V58c1.1-0.2,1.9-0.8,1.9-1.9C37.4,54.6,36.1,54.1,34.9,53.7z"/>
<path class="st0" d="M65.4,44.7c-1.2-0.3-1.6-0.6-1.6-1.2c0-0.6,0.5-1,1.5-1c1,0,1.3,0.5,1.4,1.1h1.2c0-0.9-0.6-1.8-1.7-2.1v-1.2
	h-1.6v1.2c-1.1,0.2-1.9,0.9-1.9,2c0,1.3,1,1.9,2.5,2.2c1.4,0.3,1.6,0.8,1.6,1.3c0,0.4-0.3,1-1.5,1c-1.1,0-1.6-0.5-1.6-1.1h-1.2
	c0.1,1.2,1,1.9,2,2.1v1.2H66V49c1.1-0.2,1.9-0.8,1.9-1.9C67.9,45.6,66.6,45,65.4,44.7z"/>
</svg>
