<?xml version="1.0" encoding="utf-8"?>
<!-- Generator: Adobe Illustrator 19.0.0, SVG Export Plug-In . SVG Version: 6.00 Build 0)  -->
<svg version="1.1" id="icon-youtube-header" xmlns="http://www.w3.org/2000/svg" xmlns:xlink="http://www.w3.org/1999/xlink"
	 x="0px" y="0px" width="89.7px" height="100px" viewBox="0 0 89.7 100" style="enable-background:new 0 0 89.7 100;"
	 xml:space="preserve">
<style type="text/css">
	.st0{fill:#FFFFFF;}
</style>
<g>
	<path class="st0" d="M89.7,57.6v29.5c0,1.8-0.4,3.5-1.2,5.1c-0.8,1.6-1.8,2.9-3.2,4.1c-1.3,1.2-2.9,2.1-4.7,2.7
		c-1.8,0.7-3.7,1-5.7,1H14.7c-2,0-3.9-0.3-5.7-1c-1.8-0.7-3.3-1.6-4.7-2.7C3,95.1,2,93.7,1.2,92.2C0.4,90.6,0,88.9,0,87.1V57.6
		c0-1.7,0.4-3.4,1.2-5C2,51,3,49.7,4.4,48.5c1.3-1.1,2.9-2.1,4.7-2.8c1.8-0.7,3.7-1,5.7-1H75c2,0,3.9,0.3,5.7,1
		c1.8,0.7,3.4,1.6,4.7,2.8c1.4,1.1,2.4,2.5,3.2,4.1C89.3,54.2,89.7,55.9,89.7,57.6z M18.7,90.4V59.3h7.4v-4.7h-20v4.6h6.4v31.2H18.7
		z M21.8,18.1L13.5,0h7.2l4.1,13.5L28.9,0h7.2l-7.7,18.1v21h-6.6V18.1z M41.2,63.9H35v16.6c0,1.2,0,2.1,0.1,2.8c0,0.7,0,1.1-0.3,1.2
		c-0.2,0.7-0.7,1.2-1.6,1.6c-0.9,0.3-1.5-0.1-2-1.4c-0.1-0.2-0.1-0.6-0.1-1.3c0-0.7,0.1-1.6,0.1-2.7l-0.1-16.7h-6.2l0.1,16.5
		c0,1.3,0,2.4-0.1,3.2c0,0.9,0,1.5,0.1,2c0.1,0.7,0.2,1.5,0.3,2.3c0.1,0.8,0.5,1.5,1.3,2c0.7,0.4,1.6,0.7,2.5,0.7
		c1,0,1.9-0.2,2.8-0.5c0.9-0.3,1.8-0.7,2.5-1.3c0.8-0.6,1.4-1.2,1.7-1.8l-0.1,3.3l5.1,0.1V63.9z M35.5,20.8c0-2.5,0.2-4.5,0.7-6.1
		c0.6-1.7,1.4-2.9,2.6-3.6c1.2-0.9,2.8-1.3,4.6-1.3c1.7,0,3,0.3,4.2,0.8c1.1,0.5,2,1.2,2.7,2.4c0.5,0.8,0.9,1.7,1.2,2.8
		c0.3,1.1,0.4,2.6,0.4,4.5v7c0,2.6-0.1,4.4-0.4,5.5c-0.1,1-0.5,2.2-1.4,3.4c-0.8,1.1-1.7,1.9-2.6,2.2c-1.1,0.5-2.4,0.8-3.8,0.8
		c-1.5,0-2.8-0.2-4-0.7c-1.1-0.4-2-1-2.5-1.9c-0.5-0.7-1-1.7-1.4-3c-0.3-1.2-0.4-3-0.4-5.5C35.5,28.1,35.5,20.8,35.5,20.8z M41,31.8
		c0,0.7,0.3,1.4,0.8,1.9c0.5,0.6,1.2,0.8,1.9,0.8c0.7,0,1.4-0.3,1.9-0.8c0.6-0.5,0.8-1.2,0.8-1.9V17.2c0-0.8-0.3-1.5-0.8-2
		c-0.6-0.6-1.2-0.8-1.9-0.8c-0.7,0-1.4,0.3-1.9,0.8c-0.6,0.6-0.8,1.2-0.8,2V31.8z M61.1,82.8V69c0-2.6-0.9-4.5-2.8-5.6
		c-0.6-0.4-1.4-0.5-2.2-0.5c-1.5,0-3.2,0.7-5.1,2.1V54.6h-6.2v35.5L50,90l0.4-2.2c1.7,1.4,3.2,2.2,4.5,2.6c1.3,0.3,2.4,0.2,3.4-0.4
		c0.9-0.6,1.6-1.5,2.1-2.8C60.9,85.9,61.1,84.5,61.1,82.8z M53.7,66.3c0.7,0,1.3,0.2,1.9,0.6c0.6,0.4,0.8,0.9,0.8,1.4V84
		c0,0.5-0.3,1-0.8,1.4C55,85.8,54.4,86,53.7,86c-0.7,0-1.4-0.2-1.9-0.6c-0.6-0.4-0.8-0.9-0.8-1.4V68.4c0-0.5,0.3-1,0.8-1.4
		C52.3,66.5,52.9,66.3,53.7,66.3z M56.5,36.3c-0.2-0.4-0.3-0.7-0.3-1.1c-0.1-0.4-0.1-0.8-0.2-1.1c-0.1-0.5-0.1-1.1-0.1-1.8v-2.9
		V10.9h5.8v21.4c0,0.5,0.2,1,0.6,1.4c0.4,0.4,0.9,0.6,1.6,0.6c0.6,0,1.2-0.2,1.6-0.6c0.5-0.4,0.7-0.9,0.7-1.4V10.9h5.4v27.4h-6.8
		l0.1-2.2c-0.6,0.9-1.2,1.6-1.8,2.1c-0.7,0.4-1.5,0.7-2.4,0.7c-1,0-1.9-0.2-2.6-0.7C57.5,37.8,57,37.1,56.5,36.3z M80.6,81.1H76v0.7
		v2.3c0,0.7-0.3,1.3-0.8,1.7c-0.5,0.4-1.1,0.6-1.8,0.6h-1c-0.7,0-1.3-0.2-1.8-0.6c-0.5-0.4-0.7-1-0.7-1.7v-0.3v-2.6v-3.5h10.7V74
		c0-1.4,0-2.7-0.1-4c0-1.3-0.1-2.3-0.3-3c-0.2-1.2-0.7-2.2-1.7-2.9c-0.9-0.7-2-1.2-3.2-1.5c-1.2-0.3-2.5-0.3-3.8-0.1
		c-1.3,0.2-2.4,0.6-3.3,1.3c-1.2,0.8-2.1,1.9-2.6,3.3c-0.5,1.4-0.8,3.3-0.8,5.8v8.3c0,3.5,0.9,6,2.8,7.4c1.7,1.4,3.5,2.1,5.4,2.1
		c0.2,0,0.4,0,0.6,0c2.1-0.1,4-1,5.6-2.7c1.2-1.2,1.8-2.8,1.8-4.8C80.8,82.5,80.7,81.8,80.6,81.1z M75.8,73.2h-5.9l0.1-3.3
		c0-0.7,0.3-1.3,0.8-1.8c0.5-0.5,1.2-0.7,2-0.7h0.3c0.8,0,1.5,0.2,2,0.7c0.6,0.5,0.8,1.1,0.8,1.8L75.8,73.2z"/>
</g>
</svg>
