<?xml version="1.0" ?><!DOCTYPE svg  PUBLIC '-//W3C//DTD SVG 1.1//EN'  'http://www.w3.org/Graphics/SVG/1.1/DTD/svg11.dtd'><svg enable-background="new 0 0 512 512" height="512px" id="Layer_1" version="1.1" viewBox="0 0 512 512" width="512px" xml:space="preserve" xmlns="http://www.w3.org/2000/svg" xmlns:xlink="http://www.w3.org/1999/xlink"><path d="M343.62,107.539l-154.633,23.79l0.04,173.344c0,0-26.939,1.538-32.179,3.164c-22.878,7.107-36.696,28.092-30.862,46.871  c5.833,18.777,29.11,28.24,51.988,21.134c18.829-5.849,37.016-21.768,37.982-37.455c0.017,0.009,0.025,0.011,0.025,0.011v-0.504  c0.04-0.903,0.045-1.806,0-2.709V188.683l108.186-14.349l-0.002,116.563l-17.129-0.769c-1.626-0.081-3.27-0.087-4.928-0.011  l-0.516-0.002l0.035,0.027c-4.208,0.229-8.484,0.968-12.704,2.28c-22.879,7.106-36.695,28.091-30.863,46.868  c5.834,18.779,29.111,28.24,51.989,21.134c19.034-5.912,32.87-21.442,33.565-37.309L343.62,107.539z"/><path d="M256,27.405c30.869,0,60.805,6.041,88.974,17.956c27.219,11.512,51.668,27.998,72.668,48.998  c21,21,37.485,45.449,48.998,72.667c11.915,28.169,17.956,58.104,17.956,88.974s-6.041,60.805-17.956,88.974  c-11.513,27.219-27.998,51.668-48.998,72.668s-45.449,37.485-72.668,48.998c-28.169,11.915-58.104,17.956-88.974,17.956  s-60.804-6.041-88.974-17.956c-27.218-11.513-51.667-27.998-72.667-48.998c-21-21-37.486-45.449-48.998-72.668  C33.446,316.805,27.405,286.869,27.405,256s6.041-60.804,17.956-88.974c11.512-27.218,27.998-51.667,48.998-72.667  c21-21,45.449-37.486,72.667-48.998C195.196,33.446,225.131,27.405,256,27.405 M256,7.405C118.705,7.405,7.405,118.705,7.405,256  c0,137.296,111.3,248.596,248.595,248.596c137.296,0,248.596-111.3,248.596-248.596C504.596,118.705,393.296,7.405,256,7.405  L256,7.405z"/></svg>