<?xml version="1.0" encoding="utf-8"?>
<!-- Generator: Adobe Illustrator 19.0.0, SVG Export Plug-In . SVG Version: 6.00 Build 0)  -->
<svg version="1.1" id="Camada_1" xmlns:sketch="http://www.bohemiancoding.com/sketch/ns"
	 xmlns="http://www.w3.org/2000/svg" xmlns:xlink="http://www.w3.org/1999/xlink" x="0px" y="0px" width="20px" height="20px"
	 viewBox="-275 367 60 60" enable-background="new -275 367 60 60" xml:space="preserve">
<title></title>
<path fill="#323232" d="M-245,427c16.6,0,30-13.4,30-30s-13.4-30-30-30s-30,13.4-30,30S-261.6,427-245,427z"/>
<path fill="#FFFFFF" d="M-232.7,395.3c-1.7,0-3.1-1.5-3.1-3.2s1.4-3.2,3.1-3.2c1.7,0,3.1,1.5,3.1,3.2S-231,395.3-232.7,395.3z
	 M-230.7,398.1l-4.1,3.7c0,0.3,0.1,0.6,0.1,0.9c0,3.2-2.4,5.8-5.5,5.8c-2.6,0-4.8-1.9-5.3-4.5l-10.2-3.7c-0.8,0.6-1.8,1-2.9,1
	c-2.7,0-4.8-2.3-4.8-5.1c0-2.8,2.2-5.1,4.8-5.1c2.3,0,4.2,1.7,4.7,3.9l9.9,3.5c1-1,2.3-1.7,3.8-1.7l1.5-4.8c0-0.1,0-0.2,0-0.3
	c0-3.6,2.8-6.5,6.2-6.5c3.4,0,6.2,2.9,6.2,6.5C-226.5,394.8-228.3,397.2-230.7,398.1L-230.7,398.1z M-255.6,394.6
	c-0.6-1.1-1.7-1.8-2.9-1.8c-1.9,0-3.4,1.6-3.4,3.6s1.5,3.6,3.4,3.6c0.3,0,0.7-0.1,1-0.2l-1.6-0.6c-1.3-0.7-1.8-2.4-1.1-3.8
	c0.7-1.4,2.3-1.9,3.6-1.1L-255.6,394.6L-255.6,394.6z M-232.7,396.6c2.4,0,4.3-2,4.3-4.6c0-1.8-1-3.3-2.3-4.1
	c-0.6-0.3-1.3-0.5-2-0.5c-2.4,0-4.3,2-4.3,4.6C-237,394.5-235.1,396.6-232.7,396.6z M-236.6,403.3c0-2.1-1.6-3.8-3.6-3.8
	c-0.3,0-0.6,0-0.8,0.1l2,0.7c1.3,0.7,1.8,2.4,1.1,3.8c-0.7,1.4-2.3,1.9-3.6,1.1l-2.2-0.8c0.5,1.6,1.8,2.7,3.5,2.7
	C-238.2,407.1-236.6,405.4-236.6,403.3L-236.6,403.3z"/>
</svg>
