<?xml version="1.0" encoding="utf-8"?>
<!-- Generator: Adobe Illustrator 19.0.0, SVG Export Plug-In . SVG Version: 6.00 Build 0)  -->
<svg version="1.1" id="Camada_1" xmlns="http://www.w3.org/2000/svg" xmlns:xlink="http://www.w3.org/1999/xlink" x="0px" y="0px"
	 width="40px" height="40px" viewBox="-275 377 40 40" style="enable-background:new -275 377 40 40;" xml:space="preserve">
<style type="text/css">
	.st0{fill:#FFFFFF;}
</style>
<g id="calendar_1_">
	<path class="st0" d="M-238.3,380.8h-5.4v-2.5c0-0.7-0.6-1.3-1.3-1.3s-1.3,0.6-1.3,1.3v2.5h-7.5v-2.5c0-0.7-0.6-1.3-1.3-1.3
		s-1.3,0.6-1.3,1.3v2.5h-7.5v-2.5c0-0.7-0.6-1.3-1.3-1.3s-1.3,0.6-1.3,1.3v2.5h-5.4c-1.8,0-3.3,1.5-3.3,3.3v29.6
		c0,1.8,1.5,3.3,3.3,3.3h33.3c1.8,0,3.3-1.5,3.3-3.3v-29.6C-235,382.2-236.5,380.8-238.3,380.8z M-237.5,413.7
		c0,0.5-0.4,0.8-0.8,0.8h-33.3c-0.5,0-0.8-0.4-0.8-0.8v-29.6c0-0.5,0.4-0.8,0.8-0.8h5.4v2.5c0,0.7,0.6,1.3,1.3,1.3s1.3-0.6,1.3-1.3
		v-2.5h7.5v2.5c0,0.7,0.6,1.3,1.3,1.3s1.3-0.6,1.3-1.3v-2.5h7.5v2.5c0,0.7,0.6,1.3,1.3,1.3s1.3-0.6,1.3-1.3v-2.5h5.4
		c0.5,0,0.8,0.4,0.8,0.8V413.7z"/>
	<rect x="-266.3" y="392" class="st0" width="5" height="3.8"/>
	<rect x="-266.3" y="398.3" class="st0" width="5" height="3.8"/>
	<rect x="-266.3" y="404.5" class="st0" width="5" height="3.8"/>
	<rect x="-257.5" y="404.5" class="st0" width="5" height="3.8"/>
	<rect x="-257.5" y="398.3" class="st0" width="5" height="3.8"/>
	<rect x="-257.5" y="392" class="st0" width="5" height="3.8"/>
	<rect x="-248.8" y="404.5" class="st0" width="5" height="3.8"/>
	<rect x="-248.8" y="398.3" class="st0" width="5" height="3.8"/>
	<rect x="-248.8" y="392" class="st0" width="5" height="3.8"/>
</g>
</svg>
