<?xml version="1.0" encoding="utf-8"?>
<!-- Generator: Adobe Illustrator 19.0.0, SVG Export Plug-In . SVG Version: 6.00 Build 0)  -->
<svg version="1.1" id="Camada_1" xmlns="http://www.w3.org/2000/svg" xmlns:xlink="http://www.w3.org/1999/xlink" x="0px" y="0px"
	 width="100px" height="100px" viewBox="0 0 100 100" style="enable-background:new 0 0 100 100;" xml:space="preserve">
<style type="text/css">
	.st0{fill:#FFFFFF;}
</style>
<g>
	<path class="st0" d="M87.9,31H12.1c-3.2,0-5.8-2.6-5.8-5.8v-0.7c0-3.2,2.6-5.8,5.8-5.8h75.7c3.2,0,5.8,2.6,5.8,5.8v0.7
		C93.7,28.4,91.1,31,87.9,31z"/>
	<path class="st0" d="M87.9,56H12.1c-3.2,0-5.8-2.6-5.8-5.8v-0.7c0-3.2,2.6-5.8,5.8-5.8h75.7c3.2,0,5.8,2.6,5.8,5.8v0.7
		C93.7,53.4,91.1,56,87.9,56z"/>
	<path class="st0" d="M87.9,81.3H12.1c-3.2,0-5.8-2.6-5.8-5.8v-0.7c0-3.2,2.6-5.8,5.8-5.8h75.7c3.2,0,5.8,2.6,5.8,5.8v0.7
		C93.7,78.7,91.1,81.3,87.9,81.3z"/>
</g>
</svg>
