<?xml version="1.0" encoding="utf-8"?>
<!-- Generator: Adobe Illustrator 19.0.0, SVG Export Plug-In . SVG Version: 6.00 Build 0)  -->
<svg version="1.1" id="Camada_1" xmlns="http://www.w3.org/2000/svg" xmlns:xlink="http://www.w3.org/1999/xlink" x="0px" y="0px"
	 width="50px" height="40px" viewBox="25 30 50 40" style="enable-background:new 25 30 50 40;" xml:space="preserve">
<style type="text/css">
	.st0{fill:#FFFFFF;}
</style>
<g>
	<path class="st0" d="M69.7,36.3c1.5,3.7,0.8,8.1-2.2,11.1c-3.3,3.3-8.3,3.8-12.2,1.6l-2.8,3.1l2,2l1.2-1.2c0.6-0.6,1.6-0.6,2.2,0
		l9.7,9.8c0.6,0.6,0.6,1.6,0,2.2l-4.4,4.4c-0.6,0.6-1.6,0.6-2.2,0l-9.7-9.8c-0.6-0.6-0.6-1.6,0-2.2l1.1-1.1l-1.9-1.9L36.9,69.1
		c-1.2,1.2-3.2,1.2-4.4,0L31.4,68c-1.2-1.2-1.2-3.2,0-4.4l15.3-12.8L36.5,40.5l-3.2,0l-3.7-6l3-3l6.1,3.7l0,3.1L49,48.7l3-2.5
		c-2.9-4-2.6-9.6,1-13.2c3-3,7.4-3.7,11.1-2.2l-6.6,6.5l5.5,5.5L69.7,36.3L69.7,36.3z M35,65.1c-0.6-0.6-1.6-0.6-2.2,0
		c-0.6,0.6-0.6,1.6,0,2.2s1.6,0.6,2.2,0S35.7,65.7,35,65.1z"/>
</g>
</svg>
