<?xml version="1.0" ?><svg width="50px" viewBox="0 0 32 32" xmlns="http://www.w3.org/2000/svg">
  <title/><g data-name="Layer 2" id="Layer_2">
  <path d="M24.22,31H7.72A2.72,2.72,0,0,1,5,28.28V4A2.72,2.72,0,0,1,7.72,1.25h16.5A2.72,2.72,0,0,1,26.94,4V28.28A2.72,2.72,0,0,1,24.22,31ZM7.72,3.25A.72.72,0,0,0,7,4V28.28a.72.72,0,0,0,.72.72h16.5a.72.72,0,0,0,.72-.72V4a.72.72,0,0,0-.72-.72Z"/><path d="M24.22,2.25H7.72A1.72,1.72,0,0,0,6,4V28.28A1.72,1.72,0,0,0,7.72,30h16.5a1.72,1.72,0,0,0,1.72-1.72V4A1.72,1.72,0,0,0,24.22,2.25ZM16,6.22a3,3,0,1,1-3,3A3,3,0,0,1,16,6.22Zm-6.54.36a1,1,0,1,1,1-1A1,1,0,0,1,9.46,6.58ZM16,26a5,5,0,1,1,5-5A5,5,0,0,1,16,26Z"/>
  </g>
</svg>
