<?xml version="1.0" encoding="utf-8"?>
<!-- Generator: Adobe Illustrator 19.0.0, SVG Export Plug-In . SVG Version: 6.00 Build 0)  -->
<svg version="1.1" id="Camada_1" xmlns="http://www.w3.org/2000/svg" xmlns:xlink="http://www.w3.org/1999/xlink" x="0px" y="0px"
	 width="24px" height="24px" viewBox="-293 385 24 24" enable-background="new -293 385 24 24" xml:space="preserve">
<g id="info">
</g>
<g id="icons">
	<path id="user2" fill="#FFFFFF" d="M-281,385c-6.6,0-12,5.4-12,12s5.4,12,12,12s12-5.4,12-12S-274.4,385-281,385z M-281,389
		c2.2,0,4,2.2,4,5s-1.8,5-4,5s-4-2.2-4-5S-283.2,389-281,389z M-274.4,404.5c-1.7,1.5-4.1,2.5-6.6,2.5s-4.9-1-6.6-2.5
		c-0.4-0.4-0.5-1-0.1-1.4c1.1-1.3,2.6-2.2,4.2-2.7c0.8,0.4,1.6,0.6,2.5,0.6s1.7-0.2,2.5-0.6c1.7,0.5,3.1,1.4,4.2,2.7
		C-273.9,403.5-273.9,404.1-274.4,404.5z"/>
</g>
</svg>
