<?xml version="1.0" encoding="utf-8"?>
<!-- Generator: Adobe Illustrator 19.0.0, SVG Export Plug-In . SVG Version: 6.00 Build 0)  -->
<svg version="1.1" id="Camada_1" xmlns="http://www.w3.org/2000/svg" xmlns:xlink="http://www.w3.org/1999/xlink" x="0px" y="0px"
	 width="50px" height="40px" viewBox="25 30 50 40" style="enable-background:new 25 30 50 40;" xml:space="preserve">
<style type="text/css">
	.st0{fill:#FFFFFF;}
</style>
<g>
	<g>
	</g>
	<g>
		<path class="st0" d="M46.9,40.4l-0.5-0.6c0.5-0.4,1.8-1.7,1.4-2.7c-0.2-0.4-0.4-0.7-0.7-1c-0.3-0.3-0.7-0.7-0.9-1.4
			c-0.5-1.7,1.4-4,1.6-4.2l0.6,0.5c-0.5,0.6-1.8,2.4-1.5,3.5c0.1,0.5,0.4,0.8,0.7,1.1c0.3,0.3,0.6,0.7,0.8,1.2
			C49.2,38.6,47,40.3,46.9,40.4z"/>
	</g>
	<g>
		<path class="st0" d="M50.8,39.6L50.3,39c0.3-0.2,1.1-1.1,0.9-1.6c-0.1-0.2-0.2-0.4-0.4-0.6c-0.2-0.2-0.5-0.5-0.6-1
			c-0.3-1.2,1-2.8,1.1-2.9l0.6,0.5c-0.5,0.5-1.1,1.6-1,2.2c0.1,0.3,0.2,0.5,0.4,0.7c0.2,0.2,0.4,0.5,0.6,0.9
			C52.4,38.3,50.9,39.5,50.8,39.6z"/>
	</g>
</g>
<g>
	<g>
		<path class="st0" d="M69.9,44.7h-7.3v-3.4v-0.2H35.7v0.2v22.4v1.1h0.1c0.6,5,5.4,4.5,11.2,4.5h4.5c5.8,0,10.6,0.5,11.2-4.5h0.1
			v-1.1v-6.9h7.3c0.9,0,1.7-0.7,1.7-1.6v-8.9C71.6,45.4,70.8,44.7,69.9,44.7z M69.3,53.4c0,0.7-0.6,1.2-1.4,1.2h-5.3V47h5.3
			c0.8,0,1.4,0.5,1.4,1.2V53.4z"/>
	</g>
	<g>
	</g>
	<g>
	</g>
</g>
</svg>
