<?xml version="1.0" encoding="utf-8"?>
<!-- Generator: Adobe Illustrator 19.0.0, SVG Export Plug-In . SVG Version: 6.00 Build 0)  -->
<svg version="1.1" id="Camada_1" xmlns="http://www.w3.org/2000/svg" xmlns:xlink="http://www.w3.org/1999/xlink" x="0px" y="0px"
	 viewBox="0 0 915 228.3" style="enable-background:new 0 0 915 228.3;" xml:space="preserve">
<style type="text/css">
	.st0{fill:#A8A8A9;}
</style>
<g id="XMLID_1_">
	<path id="XMLID_90_" class="st0" d="M644.7,32.4c1.6-2.4,2.5-5.3,2.5-8.5c0-8.8-7.2-16-16.2-16c-9,0-16.3,7.1-16.4,15.9
		c0,12.4,11.1,24.7,7.6,39.4c-13.5,41.3-42.2,55.7-43.3,84.9c-0.6,15.5,12.7,30.5,28.5,30.5c15.8,0.1,28.7-14.8,28.8-30.3
		c0.1-23.1-14.6-50.3-12.1-83.7C625.6,52,639,43.6,644.7,32.4z M620.5,29.6c-1.4-1.4-2.4-3.9-2.4-6.8c0-3.7,1.7-6.9,3.9-7.6
		c-1.5,1.6-2.5,4.8-2.5,8.3C619.5,25.8,619.9,27.9,620.5,29.6z M627.4,129.5c3.3,4,5,10.9,3.9,18.5c-1.3,9.7-6.7,17.3-12.6,18.5
		c4.4-3.8,8-11.6,9.3-20.9C628.9,139.6,628.6,134,627.4,129.5z"/>
	<path id="XMLID_4_" class="st0" d="M85.8,50c6.5,2.1,9.7,6.5,9.7,13.3v0.6c0,4.7-1.9,8.3-5.6,11.1c-2.6,1.8-5.3,2.7-8,2.7
		c-1.4,0-2.9-0.2-4.5-0.7c-3.7-1.2-7.6-1.8-11.6-1.8c-10.5,0-19.5,3.7-26.9,11.1c-7.3,7.4-11,16.4-11,26.9c0,10.4,3.7,19.4,11,26.8
		c7.4,7.4,16.4,11.1,26.9,11.1c4,0,7.8-0.6,11.6-1.8c1.4-0.5,2.9-0.7,4.3-0.7c2.8,0,5.5,0.9,8.1,2.7c3.7,2.7,5.6,6.5,5.6,11.2
		c0,6.7-3.2,11.1-9.7,13.3c-6.4,2-13,3-19.9,3c-18.1,0-33.7-6.4-46.5-19.3C6.4,146.4,0,130.9,0,112.8c0-18.1,6.4-33.7,19.3-46.5
		c12.9-12.9,28.4-19.3,46.5-19.3C72.7,46.9,79.4,47.9,85.8,50z"/>
	<path id="XMLID_7_" class="st0" d="M171.9,46.9c3.8,0,7.1,1.4,9.8,4.1c2.7,2.7,4,6,4,9.8v0.2c0,3.8-1.3,7.1-4,9.7
		c-2.7,2.7-6,4.1-9.8,4.1h-6.5c-6.3,0-11.6,2.2-15.9,6.5c-4.3,4.3-6.4,9.6-6.5,15.9v67.5c0,3.9-1.4,7.1-4.1,9.7
		c-2.7,2.7-6,4.1-9.7,4.1h-0.3c-3.7,0-7-1.4-9.7-4.1c-2.7-2.6-4.1-5.8-4.1-9.7V97.3c0.2-14,5.1-25.8,14.8-35.7
		c9.8-9.8,21.7-14.8,35.7-14.8H171.9z"/>
	<path id="XMLID_11_" class="st0" d="M320.5,85.3c0.9,1.9,1.4,3.9,1.4,5.8c0,1.6-0.3,3.2-0.9,4.8c-1.3,3.6-3.7,6.2-7.3,7.8
		c-10.7,4.8-24.7,11.1-42.1,19c-21.6,9.8-34.2,15.5-38,17.3c5.8,7.3,14.8,11,27.1,11c8.2,0,15.6-2.4,22.2-7.2
		c6.5-4.7,11-10.8,13.6-18.3c2.2-6.3,6.6-9.4,13.3-9.4c4.7,0,8.5,2,11.3,5.9c1.8,2.4,2.6,5,2.6,7.7c0,1.6-0.3,3.2-0.9,4.9
		c-4.5,13-12.4,23.6-23.7,31.6c-11.4,8.3-24.2,12.5-38.4,12.5c-18.1,0-33.7-6.4-46.5-19.3c-12.9-12.9-19.3-28.4-19.3-46.5
		c0-18.1,6.4-33.7,19.3-46.5c12.9-12.9,28.4-19.3,46.5-19.3c13.1,0,25.1,3.6,35.9,10.7C307.4,64.7,315.4,73.9,320.5,85.3z
		 M260.7,75.1c-10.5,0-19.5,3.7-26.9,11.1c-7.3,7.4-11,16.4-11,26.9v0.8l63.9-28.7C281.2,78.5,272.5,75.1,260.7,75.1z"/>
	<path id="XMLID_14_" class="st0" d="M456.7,66.2c12.9,12.9,19.3,28.4,19.3,46.5v52c0,3.9-1.4,7.1-4.1,9.7c-2.7,2.7-6,4.1-9.7,4.1
		h-0.3c-3.7,0-7-1.4-9.7-4.1c-2.7-2.6-4.1-5.8-4.1-9.7c-8.7,9.2-21.3,13.8-37.9,13.8c-18.1,0-33.7-6.4-46.5-19.3
		c-12.9-12.9-19.3-28.4-19.3-46.5c0-18.1,6.4-33.7,19.3-46.5c12.9-12.9,28.4-19.3,46.5-19.3C428.3,46.9,443.9,53.3,456.7,66.2z
		 M383.3,86c-7.3,7.4-11,16.3-11,26.8c0,10.5,3.7,19.5,11,26.9c7.4,7.3,16.4,11,26.9,11c10.5,0,19.4-3.7,26.8-11
		c7.4-7.4,11.1-16.4,11.1-26.9c0-10.4-3.7-19.4-11.1-26.8c-7.4-7.4-16.3-11.1-26.8-11.1C399.7,74.9,390.7,78.6,383.3,86z"/>
	<path id="XMLID_17_" class="st0" d="M513.1,0c3.7,0,7,1.3,9.7,4c2.7,2.7,4.1,6,4.1,9.8v33h17.2c3.7,0,7,1.4,9.7,4.1
		c2.7,2.7,4.1,6,4.1,9.8v0.2c0,3.9-1.4,7.1-4.1,9.7c-2.7,2.7-6,4.1-9.7,4.1H527v67.8c0,2.2,0.8,4.1,2.3,5.6c1.5,1.5,3.4,2.3,5.7,2.3
		h9.1c3.7,0,7,1.4,9.7,4.1c2.7,2.7,4.1,6,4.1,9.8v0.2c0,3.9-1.4,7.1-4.1,9.7c-2.7,2.7-6,4.1-9.7,4.1H535c-9.9,0-18.4-3.5-25.5-10.5
		c-7-7.1-10.5-15.6-10.5-25.4V13.8c0-3.8,1.4-7.1,4.1-9.8c2.7-2.7,6-4,9.7-4H513.1z"/>
	<path id="XMLID_19_" class="st0" d="M699.5,150.6l57.9,0.1c3.8,0,7.1,1.3,9.7,4c2.7,2.7,4.1,6,4.1,9.8v0.2c0,3.8-1.4,7.1-4.1,9.8
		c-2.7,2.7-5.9,4-9.7,4h-74.7c-9,0-15.3-4.2-18.9-12.7c-1.4-3.1-2.1-6.1-2.1-9c0-5.1,2.2-9.8,6.5-14.2c7.5-7.8,18.8-19.7,34.1-35.7
		c13.3-14,23.6-24.7,30.6-32.1h-52.8c-3.9,0-7.2-1.4-9.8-4.1c-2.7-2.7-4-6-4-9.7v-0.3c0-3.7,1.3-7,4-9.7c2.7-2.7,5.9-4.1,9.8-4.1
		h69.1c9.2,0,15.7,4.2,19.3,12.7c1.4,3.1,2.1,6.1,2.1,9c0,5.2-2.2,9.9-6.5,14.2C739.4,108.7,717.9,131.3,699.5,150.6z"/>
	<path id="XMLID_21_" class="st0" d="M911.8,85.3c0.9,1.9,1.4,3.9,1.4,5.8c0,1.6-0.3,3.2-0.9,4.8c-1.3,3.6-3.7,6.2-7.3,7.8
		c-10.7,4.8-24.7,11.1-42.1,19c-21.6,9.8-34.2,15.5-38,17.3c5.8,7.3,14.8,11,27.1,11c8.2,0,15.6-2.4,22.2-7.2
		c6.5-4.7,11-10.8,13.6-18.3c2.2-6.3,6.6-9.4,13.3-9.4c4.7,0,8.5,2,11.3,5.9c1.8,2.4,2.6,5,2.6,7.7c0,1.6-0.3,3.2-0.9,4.9
		c-4.5,13-12.4,23.6-23.7,31.6c-11.4,8.3-24.2,12.5-38.4,12.5c-18.1,0-33.7-6.4-46.5-19.3c-12.9-12.9-19.3-28.4-19.3-46.5
		c0-18.1,6.4-33.7,19.3-46.5c12.9-12.9,28.4-19.3,46.5-19.3c13.1,0,25.1,3.6,35.9,10.7C898.6,64.7,906.6,73.9,911.8,85.3z M852,75.1
		c-10.5,0-19.5,3.7-26.9,11.1c-7.3,7.4-11,16.4-11,26.9v0.8L878,85.2C872.4,78.5,863.7,75.1,852,75.1z"/>
</g>
<g id="XMLID_2_">
	<path id="XMLID_6_" class="st0" d="M304.3,220.3l-2.5,7.6h-3.2l8.3-24.3h3.8l8.3,24.3h-3.4l-2.6-7.6H304.3z M312.3,217.9l-2.4-7
		c-0.5-1.6-0.9-3-1.3-4.4h-0.1c-0.4,1.4-0.8,2.9-1.2,4.4l-2.4,7H312.3z"/>
	<path id="XMLID_24_" class="st0" d="M344.7,226.9c-1.4,0.5-4.2,1.3-7.5,1.3c-3.7,0-6.7-0.9-9.1-3.2c-2.1-2-3.4-5.3-3.4-9
		c0-7.2,5-12.5,13.2-12.5c2.8,0,5,0.6,6.1,1.1l-0.8,2.6c-1.3-0.6-2.9-1-5.4-1c-5.9,0-9.8,3.7-9.8,9.8c0,6.2,3.7,9.8,9.4,9.8
		c2.1,0,3.5-0.3,4.2-0.6v-7.2h-4.9v-2.5h8V226.9z"/>
	<path id="XMLID_32_" class="st0" d="M365.8,216.6h-9.4v8.8h10.5v2.6h-13.7v-24.3h13.1v2.6h-10v7.7h9.4V216.6z M360.9,198.3l3.8,4.1
		H362l-2.3-2.5h-0.1l-2.3,2.5h-2.6l3.7-4.1H360.9z"/>
	<path id="XMLID_35_" class="st0" d="M374.6,228v-24.3h3.4l7.8,12.3c1.8,2.8,3.2,5.4,4.4,7.9l0.1,0c-0.3-3.2-0.4-6.2-0.4-10v-10.2h3
		V228h-3.2l-7.7-12.3c-1.7-2.7-3.3-5.5-4.5-8.1l-0.1,0c0.2,3.1,0.3,6,0.3,10V228H374.6z"/>
	<path id="XMLID_37_" class="st0" d="M419,227.2c-1.2,0.6-3.5,1.2-6.4,1.2c-6.8,0-12-4.3-12-12.3c0-7.6,5.2-12.8,12.7-12.8
		c3,0,4.9,0.6,5.8,1.1l-0.8,2.6c-1.2-0.6-2.9-1-4.9-1c-5.7,0-9.5,3.6-9.5,10c0,5.9,3.4,9.8,9.3,9.8c1.9,0,3.9-0.4,5.1-1L419,227.2z"
		/>
	<path id="XMLID_39_" class="st0" d="M429.8,203.7V228h-3.1v-24.3H429.8z"/>
	<path id="XMLID_41_" class="st0" d="M442.9,220.3l-2.5,7.6h-3.2l8.3-24.3h3.8l8.3,24.3h-3.4l-2.6-7.6H442.9z M450.9,217.9l-2.4-7
		c-0.5-1.6-0.9-3-1.3-4.4h-0.1c-0.4,1.4-0.8,2.9-1.2,4.4l-2.4,7H450.9z"/>
	<path id="XMLID_44_" class="st0" d="M476.1,204c1.9-0.3,4.2-0.5,6.7-0.5c4.5,0,7.7,1,9.8,3c2.2,2,3.4,4.8,3.4,8.7
		c0,4-1.2,7.2-3.5,9.4c-2.3,2.3-6,3.5-10.7,3.5c-2.2,0-4.1-0.1-5.7-0.3V204z M479.3,225.5c0.8,0.1,1.9,0.2,3.2,0.2
		c6.7,0,10.3-3.7,10.3-10.3c0-5.7-3.2-9.4-9.8-9.4c-1.6,0-2.8,0.1-3.7,0.3V225.5z"/>
	<path id="XMLID_47_" class="st0" d="M507,203.7V228h-3.1v-24.3H507z"/>
	<path id="XMLID_49_" class="st0" d="M534.7,226.9c-1.4,0.5-4.2,1.3-7.5,1.3c-3.7,0-6.7-0.9-9.1-3.2c-2.1-2-3.4-5.3-3.4-9
		c0-7.2,5-12.5,13.2-12.5c2.8,0,5,0.6,6.1,1.1l-0.8,2.6c-1.3-0.6-2.9-1-5.4-1c-5.9,0-9.8,3.7-9.8,9.8c0,6.2,3.7,9.8,9.4,9.8
		c2.1,0,3.5-0.3,4.2-0.6v-7.2h-4.9v-2.5h8V226.9z"/>
	<path id="XMLID_51_" class="st0" d="M546.3,203.7V228h-3.1v-24.3H546.3z"/>
	<path id="XMLID_53_" class="st0" d="M560.1,206.3h-7.4v-2.7h18v2.7h-7.4V228h-3.2V206.3z"/>
	<path id="XMLID_55_" class="st0" d="M581,220.3l-2.5,7.6h-3.2l8.3-24.3h3.8l8.3,24.3h-3.4l-2.6-7.6H581z M589,217.9l-2.4-7
		c-0.5-1.6-0.9-3-1.3-4.4h-0.1c-0.4,1.4-0.8,2.9-1.2,4.4l-2.4,7H589z"/>
	<path id="XMLID_58_" class="st0" d="M602.9,203.7h3.1v21.7h10.4v2.6h-13.5V203.7z"/>
</g>
</svg>
