<?xml version="1.0" encoding="utf-8"?>
<!-- Generator: Adobe Illustrator 19.0.0, SVG Export Plug-In . SVG Version: 6.00 Build 0)  -->
<svg version="1.1" id="Capa_1" xmlns="http://www.w3.org/2000/svg" xmlns:xlink="http://www.w3.org/1999/xlink" x="0px" y="0px"
	 width="612.1px" height="612.1px" viewBox="0 90.9 612.1 612.1" enable-background="new 0 90.9 612.1 612.1" xml:space="preserve">
<g>
	<g id="Search">
		<g>
			<path fill="#FFFFFF" d="M595.2,604.9L493.8,503.4c26.7-41.7,42.7-91,42.7-144.3c0-148.1-120.1-268.2-268.2-268.2
				C120.1,90.9,0,211,0,359.2s120.1,268.2,268.2,268.2c53.2,0,102.5-16,144.2-42.7l101.4,101.5c22.5,22.5,58.9,22.5,81.3,0
				C617.7,663.7,617.7,627.3,595.2,604.9z M268.2,550.7c-105.8,0-191.6-85.8-191.6-191.6c0-105.8,85.8-191.6,191.6-191.6
				s191.6,85.8,191.6,191.6C459.8,465,374,550.7,268.2,550.7z"/>
		</g>
	</g>
</g>
</svg>
